<svg xmlns="http://www.w3.org/2000/svg" xmlns:xlink="http://www.w3.org/1999/xlink" width="300.5" height="118" viewBox="0 0 300.5 118"><defs><filter id="a" x="0" y="0" width="118" height="118" filterUnits="userSpaceOnUse"><feOffset dy="3" input="SourceAlpha"/><feGaussianBlur stdDeviation="3" result="b"/><feFlood flood-opacity="0.161"/><feComposite operator="in" in2="b"/><feComposite in="SourceGraphic"/></filter></defs><g transform="translate(-142 -6)"><g transform="matrix(1, 0, 0, 1, 142, 6)" filter="url(#a)"><circle cx="50" cy="50" r="50" transform="translate(9 6)" fill="#fff"/></g><path d="M.413-6.3A.666.666,0,0,0,1.7-6.3a6.942,6.942,0,0,0-.572-4.817.387.387,0,0,0-.674,0A6.911,6.911,0,0,0,.413-6.3Z" transform="translate(201.969 77.891)" fill="#000f54"/><path d="M1.29-6.3c-.179.6-1,.716-1.13,0a7.813,7.813,0,0,1,.5-4.817.321.321,0,0,1,.592,0A7.815,7.815,0,0,1,1.29-6.3Z" transform="translate(196.198 77.891)" fill="#000f54"/><path d="M40.607-113.621a45.883,45.883,0,0,1-2.688-13.854c-.241-4.059.638-8.376-1.125-12.132a4.662,4.662,0,0,0-5.661-2.477c-2.428.789-3.6,4.206-5.49,5.8-.889.75.241,2.127,1.152,1.616,1.7-.952,2.575-2.524,3.78-4.073q1.616-2.305,4.242.384a7.549,7.549,0,0,1,.777,3.671c.078,1.581-.059,3.2-.058,4.779a50.339,50.339,0,0,0,3.245,18.074c2.279,5.907,6.29,12.338,3.368,18.844-2.812,6.26-12.525,4.547-17.621,4.217a24.582,24.582,0,0,1-9.205-1.886c-2.731-1.3-4.652-4.219-6.275-6.8-2.266-3.6-.112-6.757,1.571-9.928a44.692,44.692,0,0,0,3.372-8.74c1.612-5.668,1.545-11.291,1.42-17.14-.051-2.384.578-4.694,2.806-5.646,1.913-.818,2.867,1.739,3.67,2.907a2.716,2.716,0,0,0,2.939,1.325c.865-.133.529-1.415-.189-1.511-1.24-.166-1.977-2.349-2.644-3.32a4.158,4.158,0,0,0-2.347-1.641c-2.212-.712-4.43,1.374-5.448,3.233-1.571,2.865-.686,7.037-.671,10.157a43.773,43.773,0,0,1-2.545,14.312c-.187.547-.4,1.078-.627,1.6-10.96-5.5-8.778-21.631-5.716-31.825,3.333-11.1,11.309-20.333,22.479-21.242,12.58-1.024,18.406,11.566,22.124,22.5,3.622,10.656,3.375,25.211-7.415,30.84a1.129,1.129,0,0,0-.278.23C41.212-112.127,40.89-112.891,40.607-113.621Zm2.428,4.282c7.5-3.906,10.42-11.622,10.609-19.75a43.633,43.633,0,0,0-2.1-14.01c-2.077-6.51-5.064-13.307-9.48-18.336-3.854-4.388-9.494-6.076-14.943-5.87-8.429.319-15.057,5.47-19.615,12.457A44.2,44.2,0,0,0,2.542-144.3c-3.349,10.4-5.384,29.787,7.163,33.861a56.713,56.713,0,0,0-3.585,7.679c-1.047,3.319,1.032,6.4,2.787,8.873,4.59,6.473,10.861,7.1,17.939,7.567,6.163.411,13.507.934,17.283-5.42,3.225-5.425.748-11.878-1.66-17.473A1.148,1.148,0,0,0,43.035-109.339Z" transform="translate(174 188.642)" fill="#000f54"/><circle cx="2" cy="2" r="2" transform="translate(194 38)" fill="#000f54"/><circle cx="2" cy="2" r="2" transform="translate(203 38)" fill="#000f54"/><text transform="translate(346.5 72)" fill="#f7f7f7" font-size="30" font-family="Montserrat-Light, Montserrat" font-weight="300"><tspan x="-95.205" y="0">Wetzlar</tspan><tspan y="0" font-family="Montserrat-Bold, Montserrat" font-weight="700">Devs</tspan></text></g></svg>